<svg xmlns="http://www.w3.org/2000/svg" viewBox="0 0 1700 1990" width="1700" height="1990" font-family="Segoe UI, system-ui, sans-serif">
<rect width="1700" height="1990" fill="#080c28"/>
<path d="M860,200 C860,240 850,240 850,280" fill="none" stroke="#00e676" stroke-opacity=".28" stroke-width="2"/>
<path d="M860,200 C860,280 190,280 190,360" fill="none" stroke="#00e676" stroke-opacity=".28" stroke-width="2"/>
<path d="M860,200 C860,280 470,280 470,360" fill="none" stroke="#00e676" stroke-opacity=".28" stroke-width="2"/>
<path d="M860,200 C860,280 750,280 750,360" fill="none" stroke="#00e676" stroke-opacity=".28" stroke-width="2"/>
<path d="M860,200 C860,280 1030,280 1030,360" fill="none" stroke="#00e676" stroke-opacity=".28" stroke-width="2"/>
<path d="M860,200 C860,280 1290,280 1290,360" fill="none" stroke="#00e676" stroke-opacity=".28" stroke-width="2"/>
<path d="M860,200 C860,280 1530,280 1530,360" fill="none" stroke="#00e676" stroke-opacity=".28" stroke-width="2"/>
<path d="M190,500 C190,665 955,665 955,830" fill="none" stroke="#00e676" stroke-opacity=".28" stroke-width="2"/>
<path d="M190,500 C190,665 695,665 695,830" fill="none" stroke="#00e676" stroke-opacity=".28" stroke-width="2"/>
<path d="M190,500 C190,665 435,665 435,830" fill="none" stroke="#00e676" stroke-opacity=".28" stroke-width="2"/>
<path d="M750,520 C750,675 435,675 435,830" fill="none" stroke="#00e676" stroke-opacity=".28" stroke-width="2"/>
<path d="M1030,520 C1030,675 175,675 175,830" fill="none" stroke="#00e676" stroke-opacity=".28" stroke-width="2"/>
<path d="M750,520 C750,890 185,890 185,1260" fill="none" stroke="#00e676" stroke-opacity=".28" stroke-width="2"/>
<path d="M1030,520 C1030,890 745,890 745,1260" fill="none" stroke="#00e676" stroke-opacity=".28" stroke-width="2"/>
<path d="M745,1410 C745,1335 465,1335 465,1260" fill="none" stroke="#00e676" stroke-opacity=".28" stroke-width="2"/>
<path d="M185,1410 C185,1335 1025,1335 1025,1260" fill="none" stroke="#00e676" stroke-opacity=".28" stroke-width="2"/>
<path d="M750,520 C750,1170 185,1170 185,1820" fill="none" stroke="#00e676" stroke-opacity=".28" stroke-width="2"/>
<path d="M185,1410 C185,1615 465,1615 465,1820" fill="none" stroke="#00e676" stroke-opacity=".28" stroke-width="2"/>
<path d="M745,1410 C745,1615 465,1615 465,1820" fill="none" stroke="#00e676" stroke-opacity=".28" stroke-width="2"/>
<path d="M190,500 C190,1160 745,1160 745,1820" fill="none" stroke="#00e676" stroke-opacity=".28" stroke-width="2"/>
<path d="M470,500 C470,1160 745,1160 745,1820" fill="none" stroke="#00e676" stroke-opacity=".28" stroke-width="2"/>
<path d="M1530,500 C1530,1160 1025,1160 1025,1820" fill="none" stroke="#00e676" stroke-opacity=".28" stroke-width="2"/>
<path d="M860,200 C860,375 190,375 190,550" fill="none" stroke="#00e676" stroke-opacity=".28" stroke-width="2"/>
<path d="M860,200 C860,375 470,375 470,550" fill="none" stroke="#00e676" stroke-opacity=".28" stroke-width="2"/>
<path d="M860,200 C860,375 750,375 750,550" fill="none" stroke="#00e676" stroke-opacity=".28" stroke-width="2"/>
<path d="M860,200 C860,375 1030,375 1030,550" fill="none" stroke="#00e676" stroke-opacity=".28" stroke-width="2"/>
<path d="M860,200 C860,375 1310,375 1310,550" fill="none" stroke="#00e676" stroke-opacity=".28" stroke-width="2"/>
<path d="M1310,690 C1310,835 1030,835 1030,980" fill="none" stroke="#00e676" stroke-opacity=".28" stroke-width="2"/>
<path d="M1030,690 C1030,835 1310,835 1310,980" fill="none" stroke="#00e676" stroke-opacity=".28" stroke-width="2"/>
<path d="M210,1700 C210,1615 530,1615 530,1530" fill="none" stroke="#00e676" stroke-opacity=".28" stroke-width="2"/>
<path d="M530,1700 C530,1615 850,1615 850,1530" fill="none" stroke="#00e676" stroke-opacity=".28" stroke-width="2"/>
<path d="M850,1700 C850,1615 1170,1615 1170,1530" fill="none" stroke="#00e676" stroke-opacity=".28" stroke-width="2"/>
<path d="M1310,1140 C1310,1335 530,1335 530,1530" fill="none" stroke="#00e676" stroke-opacity=".28" stroke-width="2"/>
<rect x="680" y="60" width="360" height="140" rx="10" fill="rgba(13,18,71,.85)" stroke="#4dabf7" stroke-width="1.5"/>
<text x="692" y="84" fill="#00e676" font-size="14" font-weight="700">app.py</text>
<text x="692" y="104" fill="#a8cbb9" font-size="11">Composition root. Every feature module exposes routes and</text>
<text x="692" y="118" fill="#a8cbb9" font-size="11">an optional setup(app); app.py wires them into one aiohttp</text>
<text x="692" y="132" fill="#a8cbb9" font-size="11">app. FEATURES = [apps, youtube, opencode, missions, graph,</text>
<text x="692" y="146" fill="#a8cbb9" font-size="11">graph_ui, agents_ui, missions_ui, locations_api, mcp,</text>
<text x="692" y="160" fill="#a8cbb9" font-size="11">pc_control, schedule, skills_api, setup_ui, voice, power,</text>
<text x="692" y="174" fill="#a8cbb9" font-size="11">setup_check, onboarding, integrations, ui]</text>
<rect x="60" y="280" width="1580" height="60" rx="10" fill="rgba(0,230,118,.07)" stroke="#00e676" stroke-width="2"/>
<text x="74" y="317" fill="#00e676" font-size="17" font-weight="700">hub/features/ — one module per capability, each its own web.RouteTableDef()</text>
<rect x="60" y="360" width="260" height="140" rx="10" fill="rgba(13,18,71,.85)" stroke="rgba(0,230,118,.45)" stroke-width="1.5"/>
<text x="72" y="384" fill="#00e676" font-size="14" font-weight="700">apps.py</text>
<text x="72" y="404" fill="#a8cbb9" font-size="11">Spawn/stop/proxy the fronted apps (APPS</text>
<text x="72" y="418" fill="#a8cbb9" font-size="11">registry). Idle reaper. Restart/shutdown</text>
<text x="72" y="432" fill="#a8cbb9" font-size="11">endpoints (exit code 42 = relaunch, 0 =</text>
<text x="72" y="446" fill="#a8cbb9" font-size="11">stay down).</text>
<rect x="340" y="360" width="260" height="140" rx="10" fill="rgba(13,18,71,.85)" stroke="rgba(0,230,118,.45)" stroke-width="1.5"/>
<text x="352" y="384" fill="#00e676" font-size="14" font-weight="700">youtube.py</text>
<text x="352" y="404" fill="#a8cbb9" font-size="11">Upload (yt_upload.py, YouTube Data API) +</text>
<text x="352" y="418" fill="#a8cbb9" font-size="11">download (ytdl.py, yt-dlp+ffmpeg).</text>
<text x="352" y="432" fill="#a8cbb9" font-size="11">Download pipeline shares lineage with the</text>
<text x="352" y="446" fill="#a8cbb9" font-size="11">standalone yt-fetch project (same output</text>
<text x="352" y="460" fill="#a8cbb9" font-size="11">dirs).</text>
<rect x="620" y="360" width="260" height="160" rx="10" fill="rgba(13,18,71,.85)" stroke="rgba(0,230,118,.45)" stroke-width="1.5"/>
<text x="632" y="384" fill="#00e676" font-size="14" font-weight="700">opencode.py</text>
<text x="632" y="404" fill="#a8cbb9" font-size="11">Per-folder AI coding sessions.</text>
<text x="632" y="418" fill="#a8cbb9" font-size="11">Manager.create() copies a source into</text>
<text x="632" y="432" fill="#a8cbb9" font-size="11">Agent Code/&lt;name&gt;[-N], writes a source</text>
<text x="632" y="446" fill="#a8cbb9" font-size="11">marker, launches opencode serve on its own</text>
<text x="632" y="460" fill="#a8cbb9" font-size="11">port.</text>
<rect x="900" y="360" width="260" height="160" rx="10" fill="rgba(13,18,71,.85)" stroke="rgba(0,230,118,.45)" stroke-width="1.5"/>
<text x="912" y="384" fill="#00e676" font-size="14" font-weight="700">graph.py</text>
<text x="912" y="404" fill="#a8cbb9" font-size="11">/api/graph — one node per project,</text>
<text x="912" y="418" fill="#a8cbb9" font-size="11">auto-discovered (never hand-maintained).</text>
<text x="912" y="432" fill="#a8cbb9" font-size="11">Backs the /graph D3 UI. Diff/push</text>
<text x="912" y="446" fill="#a8cbb9" font-size="11">endpoints for reviewed write-back.</text>
<rect x="1180" y="360" width="220" height="120" rx="10" fill="rgba(13,18,71,.85)" stroke="rgba(0,230,118,.45)" stroke-width="1.5"/>
<text x="1192" y="384" fill="#00e676" font-size="14" font-weight="700">power.py</text>
<text x="1192" y="404" fill="#a8cbb9" font-size="11">PC power menu</text>
<text x="1192" y="418" fill="#a8cbb9" font-size="11">(shutdown/restart/sleep/lock).</text>
<text x="1192" y="432" fill="#a8cbb9" font-size="11">Commands come from</text>
<text x="1192" y="446" fill="#a8cbb9" font-size="11">platforms.power_commands() — empty</text>
<text x="1192" y="460" fill="#a8cbb9" font-size="11">off Windows, so every action 404s</text>
<rect x="1420" y="360" width="220" height="140" rx="10" fill="rgba(13,18,71,.85)" stroke="rgba(0,230,118,.45)" stroke-width="1.5"/>
<text x="1432" y="384" fill="#00e676" font-size="14" font-weight="700">ui.py</text>
<text x="1432" y="404" fill="#a8cbb9" font-size="11">Menu page, offline/dormant page,</text>
<text x="1432" y="418" fill="#a8cbb9" font-size="11">service worker, favicons. The only</text>
<text x="1432" y="432" fill="#a8cbb9" font-size="11">thing that renders the shell UI.</text>
<rect x="60" y="750" width="1270" height="60" rx="10" fill="rgba(0,230,118,.07)" stroke="#ffd93d" stroke-width="2"/>
<text x="74" y="787" fill="#ffd93d" font-size="17" font-weight="700">hub/ — supporting modules every feature can rely on</text>
<rect x="60" y="830" width="230" height="120" rx="10" fill="rgba(13,18,71,.85)" stroke="rgba(0,230,118,.45)" stroke-width="1.5"/>
<text x="72" y="854" fill="#00e676" font-size="14" font-weight="700">config.py</text>
<text x="72" y="874" fill="#a8cbb9" font-size="11">Constants, APPS registry, all paths.</text>
<text x="72" y="888" fill="#a8cbb9" font-size="11">hub/local_settings.py (gitignored)</text>
<text x="72" y="902" fill="#a8cbb9" font-size="11">overrides secrets/PIN/machine paths.</text>
<rect x="320" y="830" width="230" height="120" rx="10" fill="rgba(13,18,71,.85)" stroke="rgba(0,230,118,.45)" stroke-width="1.5"/>
<text x="332" y="854" fill="#00e676" font-size="14" font-weight="700">platform_win.py</text>
<text x="332" y="874" fill="#a8cbb9" font-size="11">Windows Job Object — every spawned</text>
<text x="332" y="888" fill="#a8cbb9" font-size="11">child process dies with the Hub.</text>
<text x="332" y="902" fill="#a8cbb9" font-size="11">Single seam, _assign_to_job.</text>
<rect x="580" y="830" width="230" height="120" rx="10" fill="rgba(13,18,71,.85)" stroke="rgba(0,230,118,.45)" stroke-width="1.5"/>
<text x="592" y="854" fill="#00e676" font-size="14" font-weight="700">proxy.py</text>
<text x="592" y="874" fill="#a8cbb9" font-size="11">WebSocket-aware streaming reverse</text>
<text x="592" y="888" fill="#a8cbb9" font-size="11">proxy. Every fronted app is reached</text>
<text x="592" y="902" fill="#a8cbb9" font-size="11">only through this, never directly.</text>
<rect x="840" y="830" width="230" height="120" rx="10" fill="rgba(13,18,71,.85)" stroke="rgba(0,230,118,.45)" stroke-width="1.5"/>
<text x="852" y="854" fill="#00e676" font-size="14" font-weight="700">supervisor.py</text>
<text x="852" y="874" fill="#a8cbb9" font-size="11">Start/stop + idle reaper for proxied</text>
<text x="852" y="888" fill="#a8cbb9" font-size="11">apps — spins one up on first request,</text>
<text x="852" y="902" fill="#a8cbb9" font-size="11">stops it after inactivity.</text>
<rect x="1100" y="830" width="230" height="120" rx="10" fill="rgba(13,18,71,.85)" stroke="rgba(0,230,118,.45)" stroke-width="1.5"/>
<text x="1112" y="854" fill="#00e676" font-size="14" font-weight="700">lifecycle.py</text>
<text x="1112" y="874" fill="#a8cbb9" font-size="11">Startup hooks, graceful cleanup,</text>
<text x="1112" y="888" fill="#a8cbb9" font-size="11">force-exit watchdog (bounded shutdown</text>
<text x="1112" y="902" fill="#a8cbb9" font-size="11">even if something hangs).</text>
<rect x="60" y="1180" width="1090" height="60" rx="10" fill="rgba(0,230,118,.07)" stroke="#b197fc" stroke-width="2"/>
<text x="74" y="1217" fill="#b197fc" font-size="17" font-weight="700">hub/agent_knowledge/ — the knowledge + status layer OpenCode sessions and the graph both read f</text>
<rect x="60" y="1260" width="250" height="150" rx="10" fill="rgba(13,18,71,.85)" stroke="rgba(0,230,118,.45)" stroke-width="1.5"/>
<text x="72" y="1284" fill="#00e676" font-size="14" font-weight="700">__init__.py</text>
<text x="72" y="1304" fill="#a8cbb9" font-size="11">render_agents_md() — safety rules +</text>
<text x="72" y="1318" fill="#a8cbb9" font-size="11">wiki-entity summary + skill index,</text>
<text x="72" y="1332" fill="#a8cbb9" font-size="11">injected into every session&#x27;s AGENTS.md.</text>
<text x="72" y="1346" fill="#a8cbb9" font-size="11">Wiki matching: project_slug frontmatter</text>
<text x="72" y="1360" fill="#a8cbb9" font-size="11">first, fuzzy fallback second.</text>
<rect x="340" y="1260" width="250" height="150" rx="10" fill="rgba(13,18,71,.85)" stroke="rgba(0,230,118,.45)" stroke-width="1.5"/>
<text x="352" y="1284" fill="#00e676" font-size="14" font-weight="700">projects.py</text>
<text x="352" y="1304" fill="#a8cbb9" font-size="11">discover_projects() — auto-scans git</text>
<text x="352" y="1318" fill="#a8cbb9" font-size="11">repositories\ folder layout, never a</text>
<text x="352" y="1332" fill="#a8cbb9" font-size="11">static list. discover_orphan_chats() —</text>
<text x="352" y="1346" fill="#a8cbb9" font-size="11">Agent Code folders with no resolvable</text>
<text x="352" y="1360" fill="#a8cbb9" font-size="11">source.</text>
<rect x="620" y="1260" width="250" height="150" rx="10" fill="rgba(13,18,71,.85)" stroke="rgba(0,230,118,.45)" stroke-width="1.5"/>
<text x="632" y="1284" fill="#00e676" font-size="14" font-weight="700">status.py</text>
<text x="632" y="1304" fill="#a8cbb9" font-size="11">git diff --no-index per project vs. its</text>
<text x="632" y="1318" fill="#a8cbb9" font-size="11">copy (Windows-safe). Reviewed push-back:</text>
<text x="632" y="1332" fill="#a8cbb9" font-size="11">A/M only, never auto-delete.</text>
<text x="632" y="1346" fill="#a8cbb9" font-size="11">compute_project_links() from real</text>
<text x="632" y="1360" fill="#a8cbb9" font-size="11">[[wikilinks]].</text>
<rect x="900" y="1260" width="250" height="150" rx="10" fill="rgba(13,18,71,.85)" stroke="rgba(0,230,118,.45)" stroke-width="1.5"/>
<text x="912" y="1284" fill="#00e676" font-size="14" font-weight="700">skills/</text>
<text x="912" y="1304" fill="#a8cbb9" font-size="11">Domain skill files (frontmatter:</text>
<text x="912" y="1318" fill="#a8cbb9" font-size="11">name/description/keywords), matched</text>
<text x="912" y="1332" fill="#a8cbb9" font-size="11">against project name + file extensions.</text>
<text x="912" y="1346" fill="#a8cbb9" font-size="11">Bodies load on demand, not inlined.</text>
<rect x="60" y="1740" width="1480" height="60" rx="10" fill="rgba(0,230,118,.07)" stroke="#ff6b6b" stroke-width="2"/>
<text x="74" y="1777" fill="#ff6b6b" font-size="17" font-weight="700">External — not part of this repo, only ever talked to over 127.0.0.1 (or by path)</text>
<rect x="60" y="1820" width="250" height="110" rx="10" fill="rgba(13,18,71,.85)" stroke="rgba(0,230,118,.45)" stroke-width="1.5"/>
<text x="72" y="1844" fill="#00e676" font-size="14" font-weight="700">opencode binary + Agent Code\ </text>
<text x="72" y="1864" fill="#a8cbb9" font-size="11">Lives OUTSIDE git repositories\ on</text>
<text x="72" y="1878" fill="#a8cbb9" font-size="11">purpose — a session&#x27;s own working copy</text>
<text x="72" y="1892" fill="#a8cbb9" font-size="11">can never be mistaken for a source.</text>
<rect x="340" y="1820" width="250" height="110" rx="10" fill="rgba(13,18,71,.85)" stroke="rgba(0,230,118,.45)" stroke-width="1.5"/>
<text x="352" y="1844" fill="#00e676" font-size="14" font-weight="700">LLM Wiki (this vault)</text>
<text x="352" y="1864" fill="#a8cbb9" font-size="11">Read for AGENTS.md summaries + wiki-link</text>
<text x="352" y="1878" fill="#a8cbb9" font-size="11">edges. The graph&#x27;s dashed edges show</text>
<text x="352" y="1892" fill="#a8cbb9" font-size="11">which projects are/aren&#x27;t documented</text>
<text x="352" y="1906" fill="#a8cbb9" font-size="11">here.</text>
<rect x="620" y="1820" width="250" height="110" rx="10" fill="rgba(13,18,71,.85)" stroke="rgba(0,230,118,.45)" stroke-width="1.5"/>
<text x="632" y="1844" fill="#00e676" font-size="14" font-weight="700">Fronted apps</text>
<text x="632" y="1864" fill="#a8cbb9" font-size="11">Any app that binds 127.0.0.1 + honours a</text>
<text x="632" y="1878" fill="#a8cbb9" font-size="11">base-path env var — e.g. Movie Clipper,</text>
<text x="632" y="1892" fill="#a8cbb9" font-size="11">File Browser.</text>
<rect x="900" y="1820" width="250" height="110" rx="10" fill="rgba(13,18,71,.85)" stroke="rgba(0,230,118,.45)" stroke-width="1.5"/>
<text x="912" y="1844" fill="#00e676" font-size="14" font-weight="700">Tailscale</text>
<text x="912" y="1864" fill="#a8cbb9" font-size="11">The only network path in. The Hub is the</text>
<text x="912" y="1878" fill="#a8cbb9" font-size="11">sole thing meant to face the tailnet;</text>
<text x="912" y="1892" fill="#a8cbb9" font-size="11">everything else is proxied.</text>
<rect x="60" y="550" width="260" height="140" rx="10" fill="rgba(13,18,71,.85)" stroke="rgba(0,230,118,.45)" stroke-width="1.5"/>
<text x="72" y="574" fill="#00e676" font-size="14" font-weight="700">missions.py</text>
<text x="72" y="594" fill="#a8cbb9" font-size="11">Autonomous opencode run per mission, each</text>
<text x="72" y="608" fill="#a8cbb9" font-size="11">in its own git worktree. You review a diff</text>
<text x="72" y="622" fill="#a8cbb9" font-size="11">and APPLY (merge) or DISCARD (delete the</text>
<text x="72" y="636" fill="#a8cbb9" font-size="11">copy). Your repo is never written to</text>
<text x="72" y="650" fill="#a8cbb9" font-size="11">unreviewed.</text>
<rect x="340" y="550" width="260" height="140" rx="10" fill="rgba(13,18,71,.85)" stroke="rgba(0,230,118,.45)" stroke-width="1.5"/>
<text x="352" y="574" fill="#00e676" font-size="14" font-weight="700">voice.py</text>
<text x="352" y="594" fill="#a8cbb9" font-size="11">TALK: speech in, speech out. From source</text>
<text x="352" y="608" fill="#a8cbb9" font-size="11">it imports faster-whisper directly;</text>
<text x="352" y="622" fill="#a8cbb9" font-size="11">installed, it shells out to a managed</text>
<text x="352" y="636" fill="#a8cbb9" font-size="11">speech runtime so the Hub never carries an</text>
<text x="352" y="650" fill="#a8cbb9" font-size="11">ML stack.</text>
<rect x="620" y="550" width="260" height="140" rx="10" fill="rgba(13,18,71,.85)" stroke="rgba(0,230,118,.45)" stroke-width="1.5"/>
<text x="632" y="574" fill="#00e676" font-size="14" font-weight="700">pc_control.py + mcp.py</text>
<text x="632" y="594" fill="#a8cbb9" font-size="11">Routines the Hub has learned, in a local</text>
<text x="632" y="608" fill="#a8cbb9" font-size="11">SQLite under runtime.STATE. Control is off</text>
<text x="632" y="622" fill="#a8cbb9" font-size="11">until switched on, and every action is</text>
<text x="632" y="636" fill="#a8cbb9" font-size="11">approved. Windows-only.</text>
<rect x="900" y="550" width="260" height="140" rx="10" fill="rgba(13,18,71,.85)" stroke="rgba(0,230,118,.45)" stroke-width="1.5"/>
<text x="912" y="574" fill="#00e676" font-size="14" font-weight="700">onboarding.py</text>
<text x="912" y="594" fill="#a8cbb9" font-size="11">First-run setup: everything now, or each</text>
<text x="912" y="608" fill="#a8cbb9" font-size="11">tool the first time you open it. Its</text>
<text x="912" y="622" fill="#a8cbb9" font-size="11">gating middleware registers only when</text>
<text x="912" y="636" fill="#a8cbb9" font-size="11">PACKAGED — a git clone must never be</text>
<text x="912" y="650" fill="#a8cbb9" font-size="11">redirected into a setup wizard.</text>
<rect x="1180" y="550" width="260" height="140" rx="10" fill="rgba(13,18,71,.85)" stroke="rgba(0,230,118,.45)" stroke-width="1.5"/>
<text x="1192" y="574" fill="#00e676" font-size="14" font-weight="700">integrations.py</text>
<text x="1192" y="594" fill="#a8cbb9" font-size="11">Named, scoped, revocable tokens so scripts</text>
<text x="1192" y="608" fill="#a8cbb9" font-size="11">and phone shortcuts can call the Hub.</text>
<text x="1192" y="622" fill="#a8cbb9" font-size="11">Minting is browser-only, so a token can</text>
<text x="1192" y="636" fill="#a8cbb9" font-size="11">never widen itself.</text>
<rect x="1180" y="980" width="260" height="160" rx="10" fill="rgba(13,18,71,.85)" stroke="rgba(0,230,118,.45)" stroke-width="1.5"/>
<text x="1192" y="1004" fill="#00e676" font-size="14" font-weight="700">runtime.py</text>
<text x="1192" y="1024" fill="#a8cbb9" font-size="11">The only place that knows</text>
<text x="1192" y="1038" fill="#a8cbb9" font-size="11">source-vs-installed. STATE — repo hub/</text>
<text x="1192" y="1052" fill="#a8cbb9" font-size="11">from source, %LOCALAPPDATA% installed.</text>
<text x="1192" y="1066" fill="#a8cbb9" font-size="11">python_for(cap) — managed env, else the</text>
<text x="1192" y="1080" fill="#a8cbb9" font-size="11">running interpreter. PACKAGED — guards the</text>
<text x="1192" y="1094" fill="#a8cbb9" font-size="11">few genuinely install-only behaviours.</text>
<text x="1192" y="1108" fill="#a8cbb9" font-size="11">Exists so the build never has to patch</text>
<text x="1192" y="1122" fill="#a8cbb9" font-size="11">source.</text>
<rect x="900" y="980" width="260" height="160" rx="10" fill="rgba(13,18,71,.85)" stroke="rgba(0,230,118,.45)" stroke-width="1.5"/>
<text x="912" y="1004" fill="#00e676" font-size="14" font-weight="700">request_security.py</text>
<text x="912" y="1024" fill="#a8cbb9" font-size="11">Tailscale decides which *devices* can</text>
<text x="912" y="1038" fill="#a8cbb9" font-size="11">reach the Hub. It cannot decide whether</text>
<text x="912" y="1052" fill="#a8cbb9" font-size="11">you *meant* a request — any page in your</text>
<text x="912" y="1066" fill="#a8cbb9" font-size="11">browser can POST. So: same-origin for</text>
<text x="912" y="1080" fill="#a8cbb9" font-size="11">browsers, an integration token for</text>
<text x="912" y="1094" fill="#a8cbb9" font-size="11">everything else, and reads are never</text>
<text x="912" y="1108" fill="#a8cbb9" font-size="11">blocked.</text>
<rect x="620" y="980" width="260" height="160" rx="10" fill="rgba(13,18,71,.85)" stroke="rgba(0,230,118,.45)" stroke-width="1.5"/>
<text x="632" y="1004" fill="#00e676" font-size="14" font-weight="700">platforms.py</text>
<text x="632" y="1024" fill="#a8cbb9" font-size="11">What this OS can actually do. macOS and</text>
<text x="632" y="1038" fill="#a8cbb9" font-size="11">Linux run the same code with a smaller</text>
<text x="632" y="1052" fill="#a8cbb9" font-size="11">CAPABILITIES set, and the UI hides what is</text>
<text x="632" y="1066" fill="#a8cbb9" font-size="11">missing rather than offering a button that</text>
<text x="632" y="1080" fill="#a8cbb9" font-size="11">fails.</text>
<rect x="60" y="1450" width="1260" height="60" rx="10" fill="rgba(0,230,118,.07)" stroke="#00e676" stroke-width="2"/>
<text x="74" y="1487" fill="#00e676" font-size="17" font-weight="700">packaging/ — turning this folder into installers</text>
<rect x="60" y="1530" width="300" height="170" rx="10" fill="rgba(13,18,71,.85)" stroke="rgba(0,230,118,.45)" stroke-width="1.5"/>
<text x="72" y="1554" fill="#00e676" font-size="14" font-weight="700">Build-Release.cmd</text>
<text x="72" y="1574" fill="#a8cbb9" font-size="11">Double-click. Fetches payloads, stages, tests,</text>
<text x="72" y="1588" fill="#a8cbb9" font-size="11">freezes, compiles the installer. /all also tags</text>
<text x="72" y="1602" fill="#a8cbb9" font-size="11">and pushes so CI builds macOS and Linux. See</text>
<text x="72" y="1616" fill="#a8cbb9" font-size="11">packaging/BUILDING.md.</text>
<rect x="380" y="1530" width="300" height="170" rx="10" fill="rgba(13,18,71,.85)" stroke="rgba(0,230,118,.45)" stroke-width="1.5"/>
<text x="392" y="1554" fill="#00e676" font-size="14" font-weight="700">stage_release.py</text>
<text x="392" y="1574" fill="#a8cbb9" font-size="11">Allowlisted copy into a scratch tree — never</text>
<text x="392" y="1588" fill="#a8cbb9" font-size="11">touches the working Hub — then a privacy audit</text>
<text x="392" y="1602" fill="#a8cbb9" font-size="11">that refuses any machine path, database or log.</text>
<text x="392" y="1616" fill="#a8cbb9" font-size="11">No source patching, so editing the Hub cannot</text>
<text x="392" y="1630" fill="#a8cbb9" font-size="11">stale the build.</text>
<rect x="700" y="1530" width="300" height="170" rx="10" fill="rgba(13,18,71,.85)" stroke="rgba(0,230,118,.45)" stroke-width="1.5"/>
<text x="712" y="1554" fill="#00e676" font-size="14" font-weight="700">payloads.json + fetch_payloads</text>
<text x="712" y="1574" fill="#a8cbb9" font-size="11">What ships inside (Python, yt-dlp, ffmpeg) versus</text>
<text x="712" y="1588" fill="#a8cbb9" font-size="11">what is fetched when a user asks (MCP, speech,</text>
<text x="712" y="1602" fill="#a8cbb9" font-size="11">Tailscale, Node, Git). Sizes and hashes are</text>
<text x="712" y="1616" fill="#a8cbb9" font-size="11">measured, not claimed.</text>
<rect x="1020" y="1530" width="300" height="170" rx="10" fill="rgba(13,18,71,.85)" stroke="rgba(0,230,118,.45)" stroke-width="1.5"/>
<text x="1032" y="1554" fill="#00e676" font-size="14" font-weight="700">GitHub Release</text>
<text x="1032" y="1574" fill="#a8cbb9" font-size="11">The only place binaries live. Never the repo. A</text>
<text x="1032" y="1588" fill="#a8cbb9" font-size="11">public build needs a release-evidence file</text>
<text x="1032" y="1602" fill="#a8cbb9" font-size="11">recording a clean-machine install; Inno also</text>
<text x="1032" y="1616" fill="#a8cbb9" font-size="11">refuses to promote a TEST-ONLY package.</text>
</svg>